<mxfile host="Electron" agent="Mozilla/5.0 (Macintosh; Intel Mac OS X 10_15_7) AppleWebKit/537.36 (KHTML, like Gecko) draw.io/26.0.9 Chrome/128.0.6613.186 Electron/32.2.5 Safari/537.36" version="26.0.9">
  <diagram name="Page-1" id="FQdcDTcpXqyuoAATgnl1">
    <mxGraphModel dx="1707" dy="554" grid="1" gridSize="10" guides="1" tooltips="1" connect="1" arrows="1" fold="1" page="1" pageScale="1" pageWidth="850" pageHeight="1100" math="0" shadow="0">
      <root>
        <mxCell id="0" />
        <mxCell id="1" parent="0" />
        <mxCell id="B7C2pEoOwqvXAlClarIx-1" value="Cache Access Token for 24 hours" style="rounded=0;whiteSpace=wrap;html=1;fillColor=#0078BF;shadow=0;glass=0;" vertex="1" parent="1">
          <mxGeometry x="160" y="380" width="120" height="60" as="geometry" />
        </mxCell>
        <mxCell id="B7C2pEoOwqvXAlClarIx-2" value="The accessTokenTimeToLive is 24 hours" style="rounded=1;whiteSpace=wrap;html=1;fillColor=#F5833A;shadow=0;" vertex="1" parent="1">
          <mxGeometry x="460" y="380" width="140" height="60" as="geometry" />
        </mxCell>
        <mxCell id="B7C2pEoOwqvXAlClarIx-4" value="" style="endArrow=classic;html=1;rounded=0;exitX=1;exitY=0.25;exitDx=0;exitDy=0;entryX=0;entryY=0.25;entryDx=0;entryDy=0;" edge="1" parent="1" source="B7C2pEoOwqvXAlClarIx-1" target="B7C2pEoOwqvXAlClarIx-2">
          <mxGeometry width="50" height="50" relative="1" as="geometry">
            <mxPoint x="200" y="440" as="sourcePoint" />
            <mxPoint x="250" y="390" as="targetPoint" />
          </mxGeometry>
        </mxCell>
        <mxCell id="B7C2pEoOwqvXAlClarIx-5" value="Retrieve Access Token" style="edgeLabel;html=1;align=center;verticalAlign=middle;resizable=0;points=[];" vertex="1" connectable="0" parent="B7C2pEoOwqvXAlClarIx-4">
          <mxGeometry x="-0.0444" y="-2" relative="1" as="geometry">
            <mxPoint as="offset" />
          </mxGeometry>
        </mxCell>
        <mxCell id="B7C2pEoOwqvXAlClarIx-6" value="" style="endArrow=classic;html=1;rounded=0;exitX=0;exitY=0.75;exitDx=0;exitDy=0;entryX=1;entryY=0.75;entryDx=0;entryDy=0;" edge="1" parent="1" source="B7C2pEoOwqvXAlClarIx-2" target="B7C2pEoOwqvXAlClarIx-1">
          <mxGeometry width="50" height="50" relative="1" as="geometry">
            <mxPoint x="200" y="440" as="sourcePoint" />
            <mxPoint x="250" y="390" as="targetPoint" />
          </mxGeometry>
        </mxCell>
        <mxCell id="B7C2pEoOwqvXAlClarIx-7" value="Return Access Token" style="edgeLabel;html=1;align=center;verticalAlign=middle;resizable=0;points=[];" vertex="1" connectable="0" parent="B7C2pEoOwqvXAlClarIx-6">
          <mxGeometry x="0.2556" relative="1" as="geometry">
            <mxPoint x="23" as="offset" />
          </mxGeometry>
        </mxCell>
        <mxCell id="B7C2pEoOwqvXAlClarIx-8" value="MicroService A" style="text;html=1;align=center;verticalAlign=middle;whiteSpace=wrap;rounded=0;" vertex="1" parent="1">
          <mxGeometry x="175" y="350" width="90" height="30" as="geometry" />
        </mxCell>
        <mxCell id="B7C2pEoOwqvXAlClarIx-9" value="Authorization Server" style="text;html=1;align=center;verticalAlign=middle;whiteSpace=wrap;rounded=0;" vertex="1" parent="1">
          <mxGeometry x="472.5" y="350" width="115" height="30" as="geometry" />
        </mxCell>
        <mxCell id="B7C2pEoOwqvXAlClarIx-10" value="Cache Access Token for &lt;font style=&quot;color: rgb(255, 0, 0);&quot;&gt;24&lt;/font&gt; hours" style="rounded=0;whiteSpace=wrap;html=1;fillColor=#0078BF;" vertex="1" parent="1">
          <mxGeometry x="160" y="535" width="120" height="60" as="geometry" />
        </mxCell>
        <mxCell id="B7C2pEoOwqvXAlClarIx-11" value="The accessTokenTimeToLive is&lt;font style=&quot;color: rgb(255, 0, 0);&quot;&gt; 1&lt;/font&gt; hour" style="rounded=1;whiteSpace=wrap;html=1;fillColor=#F5833A;" vertex="1" parent="1">
          <mxGeometry x="460" y="535" width="140" height="60" as="geometry" />
        </mxCell>
        <mxCell id="B7C2pEoOwqvXAlClarIx-12" value="" style="endArrow=classic;html=1;rounded=0;exitX=1;exitY=0.25;exitDx=0;exitDy=0;entryX=0;entryY=0.25;entryDx=0;entryDy=0;" edge="1" parent="1" source="B7C2pEoOwqvXAlClarIx-10" target="B7C2pEoOwqvXAlClarIx-11">
          <mxGeometry width="50" height="50" relative="1" as="geometry">
            <mxPoint x="200" y="595" as="sourcePoint" />
            <mxPoint x="250" y="545" as="targetPoint" />
          </mxGeometry>
        </mxCell>
        <mxCell id="B7C2pEoOwqvXAlClarIx-13" value="Retrieve Access Token" style="edgeLabel;html=1;align=center;verticalAlign=middle;resizable=0;points=[];" vertex="1" connectable="0" parent="B7C2pEoOwqvXAlClarIx-12">
          <mxGeometry x="-0.0444" y="-2" relative="1" as="geometry">
            <mxPoint as="offset" />
          </mxGeometry>
        </mxCell>
        <mxCell id="B7C2pEoOwqvXAlClarIx-14" value="" style="endArrow=classic;html=1;rounded=0;exitX=0;exitY=0.75;exitDx=0;exitDy=0;entryX=1;entryY=0.75;entryDx=0;entryDy=0;" edge="1" parent="1" source="B7C2pEoOwqvXAlClarIx-11" target="B7C2pEoOwqvXAlClarIx-10">
          <mxGeometry width="50" height="50" relative="1" as="geometry">
            <mxPoint x="200" y="595" as="sourcePoint" />
            <mxPoint x="250" y="545" as="targetPoint" />
          </mxGeometry>
        </mxCell>
        <mxCell id="B7C2pEoOwqvXAlClarIx-15" value="Return Access Token" style="edgeLabel;html=1;align=center;verticalAlign=middle;resizable=0;points=[];" vertex="1" connectable="0" parent="B7C2pEoOwqvXAlClarIx-14">
          <mxGeometry x="0.2556" relative="1" as="geometry">
            <mxPoint x="23" as="offset" />
          </mxGeometry>
        </mxCell>
        <mxCell id="B7C2pEoOwqvXAlClarIx-16" value="MicroService A" style="text;html=1;align=center;verticalAlign=middle;whiteSpace=wrap;rounded=0;" vertex="1" parent="1">
          <mxGeometry x="175" y="505" width="90" height="30" as="geometry" />
        </mxCell>
        <mxCell id="B7C2pEoOwqvXAlClarIx-17" value="Authorization Server" style="text;html=1;align=center;verticalAlign=middle;whiteSpace=wrap;rounded=0;" vertex="1" parent="1">
          <mxGeometry x="472.5" y="505" width="115" height="30" as="geometry" />
        </mxCell>
        <mxCell id="B7C2pEoOwqvXAlClarIx-18" value="" style="endArrow=none;dashed=1;html=1;dashPattern=1 3;strokeWidth=2;rounded=0;" edge="1" parent="1">
          <mxGeometry width="50" height="50" relative="1" as="geometry">
            <mxPoint x="-850" y="480" as="sourcePoint" />
            <mxPoint x="-260" y="480" as="targetPoint" />
          </mxGeometry>
        </mxCell>
        <mxCell id="B7C2pEoOwqvXAlClarIx-20" value="Before the changes in Authorization server" style="text;html=1;align=center;verticalAlign=middle;whiteSpace=wrap;rounded=0;" vertex="1" parent="1">
          <mxGeometry y="395" width="120" height="30" as="geometry" />
        </mxCell>
        <mxCell id="B7C2pEoOwqvXAlClarIx-21" value="After the changes in Authorization server" style="text;html=1;align=center;verticalAlign=middle;whiteSpace=wrap;rounded=0;" vertex="1" parent="1">
          <mxGeometry y="550" width="120" height="30" as="geometry" />
        </mxCell>
        <mxCell id="B7C2pEoOwqvXAlClarIx-22" value="" style="endArrow=none;dashed=1;html=1;dashPattern=1 3;strokeWidth=2;rounded=0;" edge="1" parent="1">
          <mxGeometry width="50" height="50" relative="1" as="geometry">
            <mxPoint y="480" as="sourcePoint" />
            <mxPoint x="640" y="480" as="targetPoint" />
          </mxGeometry>
        </mxCell>
        <mxCell id="B7C2pEoOwqvXAlClarIx-23" value="Warning" style="html=1;shadow=0;dashed=0;shape=mxgraph.bootstrap.rrect;rSize=5;strokeColor=none;strokeWidth=1;fillColor=#FFBC26;fontColor=#000000;whiteSpace=wrap;align=left;verticalAlign=middle;spacingLeft=0;fontStyle=1;fontSize=14;spacing=5;" vertex="1" parent="1">
          <mxGeometry x="187.5" y="600" width="65" height="20" as="geometry" />
        </mxCell>
      </root>
    </mxGraphModel>
  </diagram>
</mxfile>
